<svg xmlns="http://www.w3.org/2000/svg" viewBox="0 0 1200 750" width="1200" height="750" preserveAspectRatio="xMidYMid slice" role="img">
  <defs><linearGradient id="sky" x1="0" y1="0" x2="0" y2="1"><stop offset="0" stop-color="#F8E7C6"/><stop offset="1" stop-color="#FCF5E6"/></linearGradient></defs>
  <rect width="1200" height="750" fill="url(#sky)"/>
  <circle cx="955" cy="178" r="92" fill="#E0B84C" opacity="0.14"/><circle cx="955" cy="178" r="64" fill="#E0B84C"/>
  <path d="M0,470 Q300,410 620,455 T1200,445 L1200,750 L0,750 Z" fill="#B5CFA0"/>
  <path d="M0,545 Q360,495 700,535 T1200,525 L1200,750 L0,750 Z" fill="#8FAF72"/>
  <path d="M0,615 Q400,580 740,610 T1200,600 L1200,750 L0,750 Z" fill="#5A7A40"/>
  <path d="M600,540 L1130,520 L1130,720 L600,720 Z" fill="#7FA85B"/><rect x="120" y="600" width="78" height="30" rx="4" fill="#CDB98E" stroke="#A88F5F" stroke-width="2"/><rect x="204" y="600" width="78" height="30" rx="4" fill="#CDB98E" stroke="#A88F5F" stroke-width="2"/><rect x="288" y="600" width="78" height="30" rx="4" fill="#CDB98E" stroke="#A88F5F" stroke-width="2"/><rect x="372" y="600" width="78" height="30" rx="4" fill="#CDB98E" stroke="#A88F5F" stroke-width="2"/><rect x="456" y="600" width="78" height="30" rx="4" fill="#CDB98E" stroke="#A88F5F" stroke-width="2"/><rect x="540" y="600" width="78" height="30" rx="4" fill="#CDB98E" stroke="#A88F5F" stroke-width="2"/><rect x="624" y="600" width="78" height="30" rx="4" fill="#CDB98E" stroke="#A88F5F" stroke-width="2"/><rect x="708" y="600" width="78" height="30" rx="4" fill="#CDB98E" stroke="#A88F5F" stroke-width="2"/><rect x="162" y="634" width="78" height="30" rx="4" fill="#CDB98E" stroke="#A88F5F" stroke-width="2"/><rect x="246" y="634" width="78" height="30" rx="4" fill="#CDB98E" stroke="#A88F5F" stroke-width="2"/><rect x="330" y="634" width="78" height="30" rx="4" fill="#CDB98E" stroke="#A88F5F" stroke-width="2"/><rect x="414" y="634" width="78" height="30" rx="4" fill="#CDB98E" stroke="#A88F5F" stroke-width="2"/><rect x="498" y="634" width="78" height="30" rx="4" fill="#CDB98E" stroke="#A88F5F" stroke-width="2"/><rect x="582" y="634" width="78" height="30" rx="4" fill="#CDB98E" stroke="#A88F5F" stroke-width="2"/><rect x="666" y="634" width="78" height="30" rx="4" fill="#CDB98E" stroke="#A88F5F" stroke-width="2"/><rect x="750" y="634" width="78" height="30" rx="4" fill="#CDB98E" stroke="#A88F5F" stroke-width="2"/><rect x="120" y="668" width="78" height="30" rx="4" fill="#CDB98E" stroke="#A88F5F" stroke-width="2"/><rect x="204" y="668" width="78" height="30" rx="4" fill="#CDB98E" stroke="#A88F5F" stroke-width="2"/><rect x="288" y="668" width="78" height="30" rx="4" fill="#CDB98E" stroke="#A88F5F" stroke-width="2"/><rect x="372" y="668" width="78" height="30" rx="4" fill="#CDB98E" stroke="#A88F5F" stroke-width="2"/><rect x="456" y="668" width="78" height="30" rx="4" fill="#CDB98E" stroke="#A88F5F" stroke-width="2"/><rect x="540" y="668" width="78" height="30" rx="4" fill="#CDB98E" stroke="#A88F5F" stroke-width="2"/><rect x="624" y="668" width="78" height="30" rx="4" fill="#CDB98E" stroke="#A88F5F" stroke-width="2"/><rect x="708" y="668" width="78" height="30" rx="4" fill="#CDB98E" stroke="#A88F5F" stroke-width="2"/><rect x="162" y="702" width="78" height="30" rx="4" fill="#CDB98E" stroke="#A88F5F" stroke-width="2"/><rect x="246" y="702" width="78" height="30" rx="4" fill="#CDB98E" stroke="#A88F5F" stroke-width="2"/><rect x="330" y="702" width="78" height="30" rx="4" fill="#CDB98E" stroke="#A88F5F" stroke-width="2"/><rect x="414" y="702" width="78" height="30" rx="4" fill="#CDB98E" stroke="#A88F5F" stroke-width="2"/><rect x="498" y="702" width="78" height="30" rx="4" fill="#CDB98E" stroke="#A88F5F" stroke-width="2"/><rect x="582" y="702" width="78" height="30" rx="4" fill="#CDB98E" stroke="#A88F5F" stroke-width="2"/><rect x="666" y="702" width="78" height="30" rx="4" fill="#CDB98E" stroke="#A88F5F" stroke-width="2"/><rect x="750" y="702" width="78" height="30" rx="4" fill="#CDB98E" stroke="#A88F5F" stroke-width="2"/><g transform="translate(180,575)"><rect x="-4" y="0" width="8" height="26" fill="#5A7A40"/><ellipse cx="0" cy="-4" rx="20" ry="9" fill="#6B8E4E" transform="rotate(-25)"/><ellipse cx="0" cy="-4" rx="20" ry="9" fill="#6B8E4E" transform="rotate(25)"/></g>
  <g transform="translate(72,690) scale(1.5)" opacity="0.16" fill="#1E3516"><circle cx="0" cy="-7" r="7"/><circle cx="-7" cy="0" r="7"/><circle cx="7" cy="0" r="7"/><circle cx="0" cy="7" r="7"/><rect x="-1.5" y="6" width="3" height="15" rx="1.5"/></g>
</svg>
