<svg xmlns="http://www.w3.org/2000/svg" viewBox="0 0 1200 750" width="1200" height="750" preserveAspectRatio="xMidYMid slice" role="img">
  <defs><linearGradient id="sky" x1="0" y1="0" x2="0" y2="1"><stop offset="0" stop-color="#F8E7C6"/><stop offset="1" stop-color="#FCF5E6"/></linearGradient></defs>
  <rect width="1200" height="750" fill="url(#sky)"/>
  <circle cx="955" cy="178" r="92" fill="#E0B84C" opacity="0.14"/><circle cx="955" cy="178" r="64" fill="#E0B84C"/>
  <path d="M0,470 Q300,410 620,455 T1200,445 L1200,750 L0,750 Z" fill="#B5CFA0"/>
  <path d="M0,545 Q360,495 700,535 T1200,525 L1200,750 L0,750 Z" fill="#8FAF72"/>
  <path d="M0,615 Q400,580 740,610 T1200,600 L1200,750 L0,750 Z" fill="#5A7A40"/>
  <g transform="translate(440,498)"><rect x="0" y="20" width="320" height="212" rx="14" fill="#F1ECDD" stroke="#CFC4A8" stroke-width="3"/><rect x="120" y="6" width="80" height="34" rx="8" fill="#5A7A40"/><g transform="translate(28,64)"><rect width="26" height="26" rx="6" fill="#fff" stroke="#8FAF72" stroke-width="3"/><path d="M5,13 l6,7 l11,-15" stroke="#5A7A40" stroke-width="4" fill="none" stroke-linecap="round" stroke-linejoin="round"/><rect x="42" y="6" width="204" height="12" rx="6" fill="#CFC4A8"/></g><g transform="translate(28,104)"><rect width="26" height="26" rx="6" fill="#fff" stroke="#8FAF72" stroke-width="3"/><path d="M5,13 l6,7 l11,-15" stroke="#5A7A40" stroke-width="4" fill="none" stroke-linecap="round" stroke-linejoin="round"/><rect x="42" y="6" width="184" height="12" rx="6" fill="#CFC4A8"/></g><g transform="translate(28,144)"><rect width="26" height="26" rx="6" fill="#fff" stroke="#8FAF72" stroke-width="3"/><path d="M5,13 l6,7 l11,-15" stroke="#5A7A40" stroke-width="4" fill="none" stroke-linecap="round" stroke-linejoin="round"/><rect x="42" y="6" width="164" height="12" rx="6" fill="#CFC4A8"/></g><g transform="translate(28,184)"><rect width="26" height="26" rx="6" fill="#fff" stroke="#8FAF72" stroke-width="3"/><path d="M5,13 l6,7 l11,-15" stroke="#5A7A40" stroke-width="4" fill="none" stroke-linecap="round" stroke-linejoin="round"/><rect x="42" y="6" width="144" height="12" rx="6" fill="#CFC4A8"/></g></g>
  <g transform="translate(72,690) scale(1.5)" opacity="0.16" fill="#1E3516"><circle cx="0" cy="-7" r="7"/><circle cx="-7" cy="0" r="7"/><circle cx="7" cy="0" r="7"/><circle cx="0" cy="7" r="7"/><rect x="-1.5" y="6" width="3" height="15" rx="1.5"/></g>
</svg>
